<?xml version="1.0" encoding="utf-8"?>
<!-- Generator: Adobe Illustrator 16.0.0, SVG Export Plug-In . SVG Version: 6.00 Build 0)  -->
<!DOCTYPE svg PUBLIC "-//W3C//DTD SVG 1.1//EN" "http://www.w3.org/Graphics/SVG/1.1/DTD/svg11.dtd">
<svg version="1.1" id="Layer_1" xmlns="http://www.w3.org/2000/svg" xmlns:xlink="http://www.w3.org/1999/xlink" x="0px" y="0px"
	 width="612px" height="792px" viewBox="0 0 612 792" enable-background="new 0 0 612 792" xml:space="preserve">
<path fill-rule="evenodd" clip-rule="evenodd" d="M114.118,233.9c-35.43-10.737-49.475-41.06-46.511-66.364
	c3.532-30.158,26.827-51.569,57.421-53.444c27.691-1.698,53.913,18.229,60.566,46.024c7.553,31.552-7.809,56.359-46.785,73.781
	c12.873,0,24.245,0.011,35.616-0.001c21.486-0.024,39.937,7.112,54.582,23.173c10.762,11.802,17.14,25.774,17.848,41.621
	c0.771,17.242,0.175,34.544,0.175,52.146c-26.926,10.516-54.114,19.918-82.993,23.968c-53.313,7.476-103.945-2.399-153.081-22.636
	c-1.526-0.629-3.533-2.637-3.542-4.015c-0.115-17.279-1.385-34.727,0.528-51.809c4.178-37.288,33.239-61.966,71.358-62.424
	C90.904,233.783,102.511,233.9,114.118,233.9z M227.219,336.873c0-10.432,0.037-20.624-0.007-30.815
	c-0.129-29.746-20.398-51.429-49.98-51.99c-33.309-0.63-66.646-0.567-99.958-0.012c-26.75,0.446-47.601,19.501-49.664,45.097
	c-1,12.399-0.173,24.947-0.173,37.974c9.687,3.321,19.409,6.656,29.901,10.255c0-21.653,0-42.207,0-63.069
	c6.813,0,13.139,0,20.041,0c0,22.824,0,45.235,0,67.583c33.57,6.97,66.526,6.827,100.108-0.029c0-22.762,0-45.13,0-67.613
	c6.821,0,12.978,0,19.887,0c0,20.976,0,41.606,0,62.879c6.008-1.908,11.169-3.447,16.261-5.193
	C218.132,340.397,222.55,338.625,227.219,336.873z M127.373,213.837c22.205-0.077,39.972-17.989,39.835-40.159
	c-0.134-21.775-17.963-39.558-39.809-39.707c-21.951-0.15-40.146,17.975-40.149,39.996
	C87.246,196.106,105.168,213.915,127.373,213.837z"/>
<path fill-rule="evenodd" clip-rule="evenodd" d="M500.281,233.9c11.63,0,23.26-0.12,34.887,0.021
	c35.005,0.426,62.367,21.633,70.115,54.47c1.137,4.82,1.7,9.871,1.781,14.827c0.239,14.366,0.043,28.739,0.154,43.109
	c0.021,2.973-0.45,4.78-3.712,6.08c-40.204,16.026-81.449,26.348-125.176,24.795c-35.613-1.263-69.323-10.363-102.436-22.817
	c-6.697-2.52-9.27-5.32-8.889-12.654c0.786-15.164-0.919-30.553,0.883-45.551c4.485-37.346,33.354-61.855,71.529-62.263
	c11.54-0.124,23.083-0.02,34.615-0.389c-36.525-15.476-52.505-41.038-45.347-72.931c6.132-27.318,31.971-47.527,59.577-46.593
	c30.532,1.033,54.329,22.415,58.476,53.038C549.756,189.322,538.759,222.025,500.281,233.9z M587.174,336.997
	c0-10.59,0.051-20.984-0.01-31.377c-0.172-29.527-20.804-51.12-50.414-51.585c-33.104-0.52-66.229-0.489-99.334,0.005
	c-25.788,0.385-45.583,17.004-49.183,41.881c-1.832,12.665-0.827,25.745-0.92,38.639c-0.008,1.041,1.198,2.674,2.207,3.047
	c8.922,3.311,17.927,6.399,27.892,9.897c0-21.787,0-42.466,0-63.246c6.882,0,13.038,0,19.784,0c0,22.764,0,45.171,0,67.62
	c33.574,6.955,66.544,6.869,100.128,0.018c0-22.642,0-45.027,0-67.488c6.938,0,13.239,0,20.051,0c0,21.021,0,41.528,0,62.448
	c3.384-0.907,6.228-1.5,8.954-2.435C573.204,342.064,580.028,339.553,587.174,336.997z M487.035,213.837
	c22.212,0.078,40.138-17.728,40.133-39.866c-0.004-22.042-18.168-40.14-40.146-40c-21.831,0.138-39.687,17.945-39.814,39.704
	C447.079,195.854,464.834,213.76,487.035,213.837z"/>
<path fill-rule="evenodd" clip-rule="evenodd" d="M318.832,533.86c12.83,0,24.208,0.01,35.584-0.001
	c21.487-0.022,39.937,7.12,54.578,23.183c10.759,11.804,17.133,25.779,17.84,41.626c0.769,17.241,0.174,34.543,0.174,52.133
	C400.07,661.314,372.882,670.72,344,674.768c-53.314,7.474-103.945-2.406-153.081-22.641c-1.523-0.628-3.52-2.646-3.529-4.025
	c-0.114-17.279-1.387-34.729,0.532-51.809c4.189-37.293,33.248-61.957,71.37-62.409c11.599-0.139,23.2-0.021,34.972-0.588
	c-15.745-4.778-28.709-13.143-37.542-27.096c-8.883-14.03-11.543-29.277-8.025-45.489c5.88-27.097,31.061-47.051,58.819-46.774
	c28.172,0.279,52.812,20.29,58.332,47.375C372.32,493.069,357.584,516.328,318.832,533.86z M257.424,584.2
	c0,22.938,0,45.339,0,67.664c33.57,6.976,66.512,6.8,100.089-0.047c0-22.813,0-45.173,0-67.58c6.838,0,12.992,0,19.618,0
	c0,20.935,0,41.494,0,63.128c9.139-3.143,17.477-6.209,25.952-8.828c3.522-1.088,4.268-2.998,4.186-6.355
	c-0.215-8.741-0.038-17.492-0.079-26.238c-0.142-29.711-20.468-51.377-50.058-51.918c-33.311-0.61-66.647-0.575-99.958,0
	c-26.748,0.46-47.586,19.591-49.598,45.165c-0.975,12.403-0.168,24.946-0.168,37.912c9.723,3.321,19.437,6.64,29.952,10.233
	c0-21.709,0-42.253,0-63.136C244.018,584.2,250.174,584.2,257.424,584.2z M307.478,513.799
	c22.199-0.142,39.899-18.102,39.706-40.285c-0.189-21.763-18.129-39.541-39.935-39.58c-21.993-0.04-40.074,18.088-40.024,40.123
	C267.276,496.177,285.269,513.942,307.478,513.799z"/>
<path fill-rule="evenodd" clip-rule="evenodd" d="M546.611,394.139c5.547,0.391,10.519,0.707,15.482,1.116
	c1.195,0.098,2.363,0.5,3.441,0.74c4.293,61.15-56.739,162.966-117.723,196.153c-3.43-5.263-6.888-10.567-10.522-16.145
	C501.436,532.04,537.784,471.71,546.611,394.139z"/>
<path fill-rule="evenodd" clip-rule="evenodd" d="M172.861,573.133c-3.738,5.563-7.192,10.701-11.14,16.576
	c-67.43-47.729-105.166-112.03-113.873-194.472c7.002-0.626,13.281-1.188,19.865-1.777
	C75.708,469.196,110.438,528.875,172.861,573.133z"/>
<path fill-rule="evenodd" clip-rule="evenodd" d="M408.472,134.305c-2.858,6.694-5.281,12.373-7.836,18.354
	c-63.309-25.179-126.073-24.875-189.219,1.102c-1.396-3.05-2.778-5.987-4.088-8.955c-1.248-2.827-2.419-5.688-3.96-9.329
	C271.616,107.295,339.511,106.881,408.472,134.305z"/>
</svg>
